<?xml version="1.0" standalone="no"?>
<!DOCTYPE svg PUBLIC "-//W3C//DTD SVG 20010904//EN"
 "http://www.w3.org/TR/2001/REC-SVG-20010904/DTD/svg10.dtd">
<svg version="1.0" xmlns="http://www.w3.org/2000/svg"
 width="128.000000pt" height="128.000000pt" viewBox="0 0 128.000000 128.000000"
 preserveAspectRatio="xMidYMid meet">

<g transform="translate(0.000000,128.000000) scale(0.100000,-0.100000)"
fill="#000000" stroke="none">
<path d="M321 671 c-51 -179 -94 -330 -95 -334 -1 -8 118 -56 139 -57 6 0 30
71 54 158 24 86 47 161 51 165 4 5 22 -26 39 -68 26 -60 31 -85 26 -115 l-6
-38 74 -25 74 -25 23 82 c32 119 33 119 70 47 27 -54 30 -67 21 -93 -10 -27
-8 -30 22 -43 46 -19 117 -39 120 -34 6 7 108 371 105 374 -2 1 -35 14 -75 28
l-72 26 -14 -47 -13 -47 -32 62 c-20 39 -31 74 -30 94 3 30 0 33 -47 49 -102
35 -92 37 -110 -27 -9 -32 -19 -66 -22 -77 -7 -25 -15 -13 -47 69 -21 54 -26
79 -21 111 l6 42 -74 25 -74 25 -92 -327z"/>
</g>
</svg>
